<svg xmlns="http://www.w3.org/2000/svg" viewBox="0 0 640 420" role="img" aria-labelledby="title desc">
  <title id="title">Masala dosa</title>
  <desc id="desc">A crisp masala dosa served with chutney and sambar.</desc>
  <rect width="640" height="420" fill="#eef7ee"/>
  <ellipse cx="320" cy="290" rx="234" ry="70" fill="#d7e8d3"/>
  <path d="M112 246c118-74 302-116 424-70 14 5 18 24 7 34-112 100-338 128-454 72-18-9-14-26 23-36Z" fill="#d89132"/>
  <path d="M150 244c104-52 260-82 364-46-82 58-244 94-356 72-36-7-42-12-8-26Z" fill="#f1c36f"/>
  <circle cx="452" cy="300" r="35" fill="#b84f35"/>
  <circle cx="376" cy="318" r="30" fill="#f6f0d4"/>
  <circle cx="522" cy="284" r="28" fill="#79a957"/>
  <path d="M236 236c42 12 98 12 148-2" fill="none" stroke="#a65c24" stroke-width="10" stroke-linecap="round"/>
</svg>
