<svg xmlns="http://www.w3.org/2000/svg" viewBox="0 0 640 420" role="img" aria-labelledby="title desc">
  <title id="title">Mutton dum biryani</title>
  <desc id="desc">A bowl of mutton dum biryani with spiced rice and meat pieces.</desc>
  <rect width="640" height="420" fill="#fff1df"/>
  <ellipse cx="320" cy="294" rx="220" ry="54" fill="#b16b38"/>
  <path d="M124 214c34-84 358-94 396 0 28 70-58 128-200 128s-224-58-196-128Z" fill="#cf7b35"/>
  <ellipse cx="320" cy="214" rx="198" ry="70" fill="#f6c36a"/>
  <path d="M166 220c74-56 246-72 344-14-80 54-254 72-344 14Z" fill="#ffdb86"/>
  <g fill="#7a3f24">
    <circle cx="236" cy="222" r="24"/>
    <circle cx="350" cy="194" r="26"/>
    <circle cx="434" cy="234" r="22"/>
  </g>
  <g fill="#f8f0c6">
    <rect x="202" y="174" width="82" height="10" rx="5" transform="rotate(-15 243 179)"/>
    <rect x="300" y="226" width="88" height="10" rx="5" transform="rotate(10 344 231)"/>
    <rect x="402" y="188" width="70" height="10" rx="5" transform="rotate(-7 437 193)"/>
  </g>
  <path d="M316 156c20 26 44 36 72 28" fill="none" stroke="#4f8a45" stroke-width="14" stroke-linecap="round"/>
</svg>
